<svg xmlns="http://www.w3.org/2000/svg" xmlns:xlink="http://www.w3.org/1999/xlink" width="100" height="100" viewBox="0 0 100 100">
    <defs>
        <path id="b" d="M18.3 51.654l7.894-6.83h23.224a7 7 0 0 0 7-7v-25.87h4.03c3.895 0 7.052 3.12 7.052 6.972V45.82c0 3.851-3.157 6.973-7.052 6.973h-2.015v8.814c0 .343-.12.676-.338.942a1.523 1.523 0 0 1-2.126.218L43.32 52.793H22.164a7.077 7.077 0 0 1-3.864-1.14z"/>
        <filter id="a" width="116.3%" height="115.6%" x="-8.1%" y="-3.9%" filterUnits="objectBoundingBox">
            <feOffset dy="2" in="SourceAlpha" result="shadowOffsetOuter1"/>
            <feGaussianBlur in="shadowOffsetOuter1" result="shadowBlurOuter1" stdDeviation="1"/>
            <feColorMatrix in="shadowBlurOuter1" values="0 0 0 0 0 0 0 0 0 0 0 0 0 0 0 0 0 0 0.1 0"/>
        </filter>
    </defs>
    <g fill="none" fill-rule="evenodd">
        <circle cx="50" cy="50" r="50" fill="#C8C0FC"/>
        <g transform="translate(17.5 18.75)">
            <use fill="#000" filter="url(#a)" xlink:href="#b"/>
            <use fill="#FFF" xlink:href="#b"/>
            <path fill="#7755D9" fill-rule="nonzero" d="M7 0h38.388a7 7 0 0 1 7 7v26.84a7 7 0 0 1-7 7H25.187l-13.68 10.99a1.5 1.5 0 0 1-2.44-1.17v-9.82H7a7 7 0 0 1-7-7V7a7 7 0 0 1 7-7z"/>
            <path fill="#C8C0FC" fill-rule="nonzero" d="M12.576 13.945h27.236a1.494 1.494 0 0 1 0 2.988H12.576a1.494 1.494 0 1 1 0-2.988z"/>
            <rect width="20.149" height="2.988" x="11.082" y="23.906" fill="#C8C0FC" fill-rule="nonzero" rx="1.494"/>
        </g>
    </g>
</svg>
